<svg id="svg" version="1.1" xmlns="http://www.w3.org/2000/svg" xmlns:xlink="http://www.w3.org/1999/xlink" width="400" height="400" viewBox="0, 0, 400,400"><g id="svgg"><path id="path0" d="M181.648 18.542 C 181.320 18.938,181.253 19.932,181.435 21.712 C 181.668 23.982,181.547 24.750,180.464 27.876 C 179.341 31.122,179.249 31.755,179.458 34.823 C 179.685 38.150,179.667 38.241,178.207 40.924 C 176.503 44.057,176.525 44.410,178.651 47.978 C 180.627 51.296,180.737 54.494,178.974 57.439 C 177.233 60.347,177.223 60.406,177.895 63.876 C 178.700 68.032,178.438 68.917,175.572 71.714 C 172.750 74.467,172.832 73.647,174.938 78.114 C 177.744 84.066,177.919 84.513,178.177 86.400 C 178.460 88.475,178.276 88.845,176.506 89.751 C 175.040 90.503,174.844 91.071,174.702 95.000 L 174.600 97.800 172.800 98.709 C 171.425 99.403,170.616 99.560,169.372 99.374 C 168.000 99.169,167.550 99.293,166.514 100.165 C 164.711 101.682,163.120 101.540,160.856 99.658 C 158.165 97.423,157.277 97.060,154.600 97.102 C 151.638 97.149,149.923 97.734,150.250 98.587 C 150.960 100.435,145.255 98.857,142.747 96.512 L 140.800 94.691 140.800 90.332 C 140.800 84.281,138.646 80.234,133.666 76.929 C 132.460 76.128,130.221 74.376,128.691 73.036 C 124.342 69.227,123.225 68.554,120.050 67.835 C 118.427 67.468,117.042 67.225,116.971 67.295 C 116.776 67.491,118.410 70.074,120.243 72.467 C 121.147 73.647,122.017 75.023,122.176 75.526 C 122.363 76.113,123.206 76.771,124.533 77.366 C 127.715 78.791,128.251 79.620,128.565 83.587 C 128.873 87.479,128.923 87.556,133.115 90.666 C 136.478 93.160,136.584 93.370,137.806 99.874 C 138.309 102.555,138.827 104.920,138.956 105.129 C 139.386 105.824,138.230 106.318,135.494 106.608 C 134.006 106.765,132.682 107.067,132.551 107.279 C 132.040 108.106,133.328 111.247,134.617 112.318 C 137.374 114.608,138.366 118.042,138.197 124.715 C 138.080 129.347,136.825 130.144,132.400 128.400 C 131.166 127.914,129.427 127.600,127.965 127.600 C 123.569 127.600,122.289 126.304,122.356 121.918 C 122.411 118.292,122.138 117.880,118.463 116.032 C 114.570 114.074,113.251 112.370,112.823 108.746 C 112.497 105.976,111.413 104.669,108.200 103.166 C 105.204 101.765,104.667 102.978,106.851 106.214 C 107.985 107.894,108.079 108.265,107.854 110.181 L 107.605 112.295 109.228 113.419 C 112.026 115.359,113.737 119.335,112.816 121.757 C 112.192 123.400,112.624 124.282,114.319 124.824 C 118.649 126.206,119.461 131.404,115.655 133.372 C 113.159 134.662,112.514 134.415,107.039 130.076 L 104.863 128.351 103.212 129.194 C 101.098 130.272,101.018 130.546,101.991 133.374 C 103.087 136.559,103.038 138.037,101.800 139.200 C 100.649 140.282,100.562 141.224,101.395 143.586 C 103.179 148.644,94.836 149.159,89.475 144.322 C 87.836 142.844,87.731 142.811,84.632 142.806 L 81.464 142.800 78.795 140.223 C 75.769 137.302,75.835 137.326,69.600 136.830 C 66.414 136.576,64.041 136.132,61.879 135.386 C 58.345 134.165,57.936 134.276,58.958 136.174 C 60.308 138.680,64.494 141.998,66.312 142.001 C 68.196 142.006,70.255 143.913,72.003 147.274 C 73.060 149.308,73.443 149.664,75.616 150.639 C 78.441 151.907,79.200 152.805,79.200 154.880 C 79.200 156.960,80.736 157.829,85.732 158.576 C 87.788 158.884,88.401 159.256,90.182 161.278 C 92.441 163.844,92.614 164.413,91.681 166.242 C 91.158 167.268,90.944 168.316,91.054 169.312 C 91.281 171.358,87.306 175.532,84.342 176.361 L 82.483 176.881 82.688 179.142 C 83.095 183.629,81.424 185.415,77.775 184.393 C 76.223 183.959,75.888 183.977,75.273 184.534 C 74.482 185.250,69.589 186.450,64.369 187.209 C 60.515 187.769,58.775 187.444,57.135 185.856 C 54.150 182.968,52.952 182.689,51.662 184.583 C 50.319 186.555,47.800 187.324,43.858 186.967 C 41.047 186.712,40.700 186.770,38.722 187.824 C 36.348 189.088,34.901 189.178,26.345 188.599 L 21.691 188.283 19.345 190.076 C 15.640 192.908,12.664 193.552,10.640 191.960 C 8.405 190.202,6.719 190.448,5.486 192.713 C 3.959 195.518,4.062 196.028,6.383 197.167 C 7.467 197.699,9.664 199.454,11.267 201.067 C 14.688 204.511,15.399 204.674,17.182 202.423 C 20.565 198.152,24.777 198.112,27.076 202.328 C 28.320 204.612,29.456 205.031,32.726 204.414 C 34.895 204.005,35.933 203.989,37.339 204.343 C 39.907 204.990,41.289 204.915,43.696 204.000 C 47.633 202.504,50.049 203.153,53.170 206.546 C 54.417 207.902,55.145 207.874,57.000 206.400 C 58.170 205.470,58.913 205.200,60.301 205.200 C 61.509 205.200,63.057 204.748,65.055 203.813 C 68.853 202.034,71.173 201.717,73.800 202.618 C 74.900 202.995,77.021 203.369,78.514 203.449 C 83.548 203.718,85.687 206.642,87.773 216.100 C 88.012 217.187,89.637 217.710,90.158 216.868 C 90.674 216.033,94.863 215.431,95.948 216.037 C 98.234 217.314,97.467 220.074,94.013 222.999 C 92.504 224.277,91.350 225.670,90.811 226.862 C 89.774 229.157,87.998 230.000,84.204 230.000 C 81.782 230.000,81.568 230.076,80.712 231.239 C 78.768 233.880,74.703 235.185,71.543 234.182 C 69.760 233.616,66.487 236.383,67.006 238.019 C 67.733 240.309,70.467 241.224,72.974 240.016 C 74.674 239.196,80.163 238.346,80.693 238.821 C 81.652 239.677,85.027 240.399,88.606 240.511 C 94.389 240.693,94.941 241.481,91.800 245.071 C 89.580 247.609,89.572 247.754,91.700 246.846 C 92.635 246.447,94.057 245.999,94.859 245.850 C 95.662 245.701,96.742 245.247,97.259 244.842 C 99.162 243.350,102.400 243.447,102.400 244.996 C 102.400 247.194,99.038 255.877,97.782 256.926 C 97.040 257.545,95.526 259.205,94.417 260.616 C 91.078 264.865,89.124 265.447,87.772 262.597 C 87.186 261.362,86.932 261.200,85.587 261.200 C 83.400 261.200,82.864 261.506,81.963 263.272 C 80.775 265.601,78.627 266.400,73.554 266.400 C 69.287 266.400,67.103 266.989,66.109 268.408 C 65.673 269.031,65.094 269.200,63.398 269.200 C 61.371 269.200,58.811 270.793,58.802 272.061 C 58.798 272.615,56.041 273.281,52.400 273.608 C 49.851 273.837,47.810 274.284,46.200 274.965 C 44.880 275.524,43.155 275.985,42.366 275.991 C 41.284 275.998,40.670 276.295,39.863 277.200 C 37.314 280.060,32.111 277.666,33.796 274.408 C 34.661 272.735,34.274 272.284,32.259 272.619 C 29.833 273.022,28.449 273.859,28.147 275.107 C 27.700 276.959,26.470 278.310,24.695 278.899 C 22.760 279.541,21.200 281.477,21.200 283.236 C 21.200 283.850,21.017 284.466,20.794 284.604 C 19.352 285.495,18.460 289.055,19.195 290.987 C 19.707 292.332,20.558 291.822,23.400 288.464 C 27.474 283.652,33.967 281.340,36.071 283.954 C 38.414 286.864,40.895 286.945,46.400 284.291 C 49.301 282.891,53.291 282.825,54.523 284.155 C 56.122 285.881,57.635 285.925,59.454 284.300 C 60.304 283.540,61.535 282.667,62.190 282.359 C 62.992 281.981,63.778 281.017,64.601 279.399 C 66.753 275.168,69.884 274.258,72.678 277.051 C 74.328 278.701,76.664 278.540,81.288 276.456 C 83.687 275.374,84.266 275.268,86.688 275.462 L 89.400 275.679 90.950 274.022 C 93.160 271.660,95.228 270.709,98.067 270.749 C 99.350 270.767,100.400 270.634,100.400 270.453 C 100.400 269.096,104.446 266.000,106.220 266.000 C 107.625 266.000,108.377 265.754,109.273 265.000 C 110.829 263.691,113.111 263.687,115.907 264.989 C 117.066 265.528,119.235 266.222,120.726 266.531 C 123.842 267.176,125.065 267.822,125.368 268.982 C 125.485 269.432,126.485 271.313,127.591 273.161 C 129.878 276.988,130.024 277.981,128.557 279.724 C 127.631 280.824,127.543 281.190,127.769 282.982 C 128.388 287.887,127.921 289.335,124.761 292.309 C 123.656 293.349,122.242 295.010,121.617 296.000 C 120.992 296.990,119.551 298.790,118.413 300.000 C 115.481 303.119,114.819 304.707,114.809 308.650 C 114.797 313.082,114.534 314.091,112.958 315.762 C 111.943 316.838,111.600 317.558,111.600 318.611 C 111.600 319.778,111.192 320.458,109.226 322.573 C 106.365 325.648,104.884 331.018,106.462 332.596 C 107.306 333.440,109.009 332.025,109.128 330.381 C 109.283 328.222,109.686 327.706,111.986 326.720 C 114.121 325.805,114.386 325.457,114.394 323.549 C 114.397 322.751,114.670 321.874,115.000 321.600 C 115.330 321.326,115.600 320.919,115.600 320.695 C 115.600 319.984,116.956 319.226,118.252 319.213 C 119.257 319.203,119.806 318.825,121.034 317.300 C 121.876 316.255,123.171 314.770,123.913 314.000 C 125.512 312.339,126.492 310.543,127.319 307.751 C 128.563 303.554,129.962 302.400,133.804 302.400 C 134.128 302.400,134.560 301.691,134.817 300.737 C 135.678 297.540,137.439 296.457,140.586 297.187 C 142.485 297.627,143.017 297.287,144.003 295.006 C 144.384 294.123,145.104 293.040,145.603 292.600 C 146.101 292.160,147.031 290.645,147.667 289.234 C 148.304 287.823,149.450 285.978,150.213 285.133 C 151.471 283.741,151.600 283.374,151.600 281.199 C 151.600 279.879,151.735 278.780,151.900 278.756 C 156.522 278.076,157.768 278.564,158.428 281.316 C 159.102 284.128,160.385 286.776,161.706 288.082 C 163.068 289.428,163.069 289.910,161.715 292.513 C 160.872 294.134,160.577 295.380,160.396 298.093 C 160.137 301.977,159.364 303.269,156.373 304.807 C 154.119 305.967,154.077 306.112,153.727 313.945 L 153.400 321.273 154.757 321.052 C 156.448 320.778,158.116 319.285,157.853 318.282 C 157.353 316.370,158.575 314.648,161.600 313.000 C 165.080 311.104,166.190 309.619,165.776 307.414 C 165.575 306.341,165.723 305.751,166.448 304.732 C 167.097 303.821,167.466 302.574,167.668 300.613 C 167.971 297.672,169.551 293.329,171.362 290.461 C 171.933 289.556,172.400 288.632,172.400 288.408 C 172.400 287.262,173.355 288.300,175.200 291.449 L 176.400 293.498 175.568 295.379 C 173.490 300.077,174.110 302.652,177.782 304.573 C 181.781 306.665,181.739 306.346,179.156 315.014 C 178.957 315.682,178.076 317.186,177.197 318.355 C 175.506 320.605,175.453 320.819,175.857 323.760 C 176.152 325.915,176.691 326.337,179.497 326.610 C 185.171 327.163,185.555 328.073,183.631 336.400 C 183.148 338.490,182.583 340.753,182.376 341.428 C 181.704 343.624,181.932 344.723,183.398 346.345 C 184.896 348.004,186.173 350.596,185.794 351.210 C 185.666 351.417,185.951 352.893,186.427 354.491 C 187.322 357.496,187.313 361.216,186.403 364.390 C 185.963 365.923,186.594 367.758,187.986 368.999 C 189.513 370.360,190.104 371.975,190.046 374.628 C 189.998 376.862,192.020 383.248,193.159 384.456 C 193.379 384.690,199.132 383.849,200.300 383.412 C 201.000 383.150,200.921 382.022,200.099 380.534 C 199.715 379.838,198.998 378.545,198.506 377.662 C 196.450 373.967,196.805 366.968,199.187 364.215 C 201.203 361.886,201.336 361.362,200.619 358.607 C 199.789 355.422,200.312 353.393,202.990 349.400 C 205.808 345.199,205.868 344.856,204.443 340.968 L 203.258 337.737 204.178 334.568 C 204.684 332.826,205.582 330.335,206.173 329.034 C 207.168 326.845,207.213 326.522,206.777 324.706 C 205.821 320.719,207.870 315.761,210.118 316.624 C 211.612 317.197,212.800 320.112,212.800 323.204 C 212.800 327.697,214.026 328.610,220.272 328.767 C 225.723 328.904,226.344 328.328,228.794 320.868 C 230.948 314.308,230.791 313.242,227.436 311.618 C 226.454 311.142,225.018 310.052,224.244 309.196 L 222.836 307.638 223.053 304.119 C 223.308 299.995,223.897 299.230,228.968 296.439 C 233.498 293.945,234.751 291.732,233.167 289.024 C 232.479 287.848,232.479 287.721,233.168 285.779 C 233.562 284.668,233.801 283.189,233.699 282.493 C 233.597 281.797,233.714 280.071,233.960 278.658 C 234.323 276.579,234.291 275.536,233.797 273.185 C 232.645 267.707,234.209 263.861,238.800 260.887 C 240.010 260.103,241.475 259.029,242.055 258.499 C 242.941 257.690,243.848 257.451,247.745 256.998 C 250.295 256.702,252.526 256.369,252.704 256.259 C 252.882 256.149,254.371 256.021,256.014 255.973 C 258.377 255.905,259.365 255.676,260.753 254.875 C 262.345 253.955,262.661 253.904,264.205 254.317 C 265.341 254.621,266.342 254.646,267.221 254.394 C 268.699 253.970,269.305 254.290,270.103 255.915 C 271.356 258.468,274.852 259.393,277.079 257.760 C 279.948 255.656,282.345 255.822,285.528 258.343 C 286.469 259.088,287.580 259.600,288.258 259.600 C 288.886 259.600,290.563 260.151,291.984 260.823 C 294.310 261.924,294.815 262.019,297.036 261.781 C 300.204 261.442,301.710 262.143,303.600 264.835 C 304.370 265.931,305.585 267.197,306.300 267.647 C 307.998 268.716,308.800 269.903,308.800 271.348 C 308.800 272.182,309.316 273.069,310.600 274.441 C 312.235 276.189,312.400 276.549,312.400 278.357 C 312.400 282.819,314.811 284.807,320.590 285.110 C 326.220 285.404,329.217 283.504,325.996 281.681 C 324.782 280.995,324.007 279.260,324.002 277.220 C 323.999 275.661,321.607 269.746,320.596 268.797 C 319.972 268.210,318.860 267.827,317.138 267.605 C 312.897 267.059,311.825 265.895,312.743 262.833 C 313.837 259.182,313.461 257.997,310.537 255.880 C 309.162 254.884,307.862 253.404,306.637 251.439 C 304.105 247.376,304.263 246.073,307.215 246.663 C 309.750 247.170,310.679 245.132,308.900 242.968 C 308.295 242.232,307.369 241.068,306.842 240.381 C 306.315 239.695,305.100 238.752,304.142 238.287 C 302.319 237.401,301.935 236.484,303.012 235.590 C 303.349 235.310,304.345 234.221,305.225 233.170 L 306.826 231.258 305.576 229.833 C 304.803 228.954,304.245 227.811,304.115 226.844 L 303.905 225.280 306.432 225.409 C 309.244 225.554,310.802 224.979,311.823 223.422 C 312.169 222.893,312.981 222.276,313.626 222.051 C 315.138 221.524,315.136 220.537,313.622 220.205 C 312.975 220.063,311.670 219.330,310.722 218.577 C 309.775 217.824,308.032 216.924,306.848 216.577 C 304.404 215.862,300.654 212.667,300.218 210.928 C 299.298 207.264,305.177 204.460,310.050 206.239 C 312.247 207.041,313.591 207.032,315.342 206.201 C 316.945 205.440,319.183 205.842,320.911 207.201 C 322.393 208.367,323.461 208.191,325.435 206.453 C 329.387 202.974,336.677 203.362,339.690 207.211 C 340.967 208.843,343.135 209.561,346.850 209.582 C 348.563 209.592,350.666 209.875,351.650 210.227 C 354.781 211.349,356.288 211.282,359.378 209.882 C 362.002 208.694,362.509 208.604,366.600 208.602 C 370.721 208.600,371.107 208.530,372.692 207.500 C 374.850 206.097,376.148 206.084,377.081 207.456 C 379.519 211.038,380.858 211.497,382.067 209.164 C 383.431 206.534,384.343 205.994,387.842 205.743 C 392.855 205.383,396.816 203.255,397.572 200.515 C 398.116 198.546,398.007 198.519,395.353 199.957 C 392.293 201.614,391.590 201.549,389.382 199.404 C 387.488 197.562,386.600 197.452,385.717 198.947 C 384.921 200.294,382.664 200.774,381.416 199.861 C 380.705 199.341,380.710 199.290,381.539 198.461 C 382.892 197.108,382.589 196.222,379.756 193.242 C 375.499 188.763,374.105 188.621,369.537 192.194 C 365.785 195.130,363.024 195.143,359.574 192.239 C 357.621 190.597,356.309 190.552,353.453 192.033 L 350.938 193.337 347.569 192.312 C 345.716 191.748,342.719 191.173,340.908 191.034 C 334.177 190.520,326.509 188.058,323.915 185.579 C 323.236 184.930,322.344 184.400,321.932 184.400 C 321.520 184.400,319.736 183.673,317.968 182.784 C 314.229 180.904,311.728 180.989,308.617 183.102 C 305.652 185.116,297.614 184.638,296.547 182.384 C 296.291 181.843,295.796 180.770,295.446 180.000 C 295.096 179.230,294.423 178.118,293.949 177.530 C 292.108 175.241,292.568 171.467,294.962 169.230 C 296.896 167.423,295.996 165.628,292.866 165.052 C 290.580 164.631,289.262 163.324,287.429 159.658 C 286.478 157.756,285.408 155.660,285.052 155.000 C 283.867 152.802,284.111 152.148,287.800 147.656 C 289.296 145.834,290.380 144.960,292.104 144.186 C 293.958 143.354,294.574 142.827,295.254 141.493 C 297.293 137.498,301.489 134.131,305.600 133.192 C 307.447 132.770,307.995 132.426,309.014 131.048 C 310.090 129.594,310.476 129.371,312.398 129.095 C 316.096 128.563,317.036 127.213,317.762 121.400 C 318.218 117.749,319.454 115.922,322.104 114.984 C 323.372 114.536,324.781 113.797,325.235 113.342 L 326.062 112.516 324.447 111.238 L 322.833 109.959 320.868 110.543 C 317.963 111.405,316.875 112.093,313.988 114.889 C 310.781 117.997,307.397 119.321,304.936 118.431 C 300.936 116.985,296.093 119.511,295.408 123.400 C 294.673 127.578,292.537 129.000,286.995 129.000 C 282.172 129.000,280.906 129.645,277.643 133.764 C 270.900 142.275,265.762 144.379,262.042 140.152 C 259.854 137.667,259.412 136.172,259.946 133.072 C 260.181 131.713,260.582 129.257,260.837 127.615 C 261.275 124.798,261.412 124.523,263.280 122.723 C 264.618 121.433,265.194 120.587,265.058 120.108 C 263.805 115.686,264.432 112.562,267.230 109.294 C 268.789 107.472,269.194 106.704,269.196 105.560 C 269.201 103.900,269.940 101.516,270.368 101.780 C 270.859 102.083,277.757 99.620,278.469 98.888 C 279.576 97.750,279.380 92.800,278.227 92.800 C 277.961 92.800,275.419 93.610,272.578 94.600 C 269.737 95.590,267.369 96.400,267.317 96.400 C 266.939 96.400,265.988 99.108,265.455 101.701 C 264.514 106.277,262.771 107.893,257.595 108.990 C 254.154 109.720,253.167 111.095,252.021 116.754 C 250.426 124.633,246.046 125.310,240.232 118.576 C 237.757 115.708,237.553 114.375,238.983 110.381 C 239.569 108.741,240.665 105.522,241.417 103.227 C 242.388 100.263,243.148 98.679,244.038 97.761 C 245.496 96.256,246.054 93.395,245.199 91.798 C 244.469 90.434,244.908 88.005,246.405 85.129 C 247.892 82.271,247.852 81.099,246.149 77.734 C 244.647 74.766,242.045 75.741,241.359 79.529 C 240.770 82.784,239.117 84.542,236.240 84.973 C 233.139 85.438,231.787 87.535,232.826 90.268 C 234.533 94.757,228.465 99.349,222.342 98.200 C 220.248 97.807,218.874 98.588,215.761 101.938 C 208.152 110.129,203.704 110.674,202.198 103.600 C 202.035 102.830,201.518 101.660,201.050 101.000 C 200.351 100.013,200.161 99.017,199.980 95.377 C 199.800 91.768,199.598 90.691,198.880 89.529 C 197.722 87.657,197.757 85.540,199.000 82.238 C 200.477 78.315,200.366 76.111,198.605 74.405 C 196.169 72.044,195.748 70.232,196.805 66.670 C 198.560 60.760,197.662 57.089,194.000 55.200 C 190.219 53.250,188.851 48.156,190.995 44.010 C 192.171 41.736,191.814 40.252,189.546 37.984 L 187.492 35.930 187.742 33.231 C 187.979 30.689,187.934 30.477,186.959 29.567 C 185.179 27.904,184.738 26.606,184.858 23.378 C 185.003 19.482,183.165 16.714,181.648 18.542 M44.400 106.982 C 44.400 107.811,46.101 110.209,47.453 111.286 C 49.287 112.747,51.142 113.999,51.484 114.008 C 51.658 114.012,52.340 114.914,53.000 116.013 C 54.527 118.555,55.396 118.792,58.421 117.486 L 60.777 116.470 62.371 117.625 C 63.248 118.260,64.709 119.730,65.617 120.890 C 68.801 124.958,74.394 125.526,75.348 121.878 C 75.832 120.025,71.380 115.830,68.494 115.420 C 67.452 115.271,65.700 114.824,64.600 114.426 C 63.500 114.027,61.340 113.575,59.800 113.420 C 54.944 112.932,53.232 112.245,50.931 109.861 C 48.119 106.948,44.400 105.309,44.400 106.982 M83.489 128.100 C 83.717 131.739,84.740 132.990,87.136 132.561 C 91.093 131.853,90.789 129.097,86.450 126.346 C 83.560 124.513,83.274 124.683,83.489 128.100 M206.400 132.597 C 210.152 134.792,211.491 135.216,214.335 135.108 L 217.163 135.000 218.891 136.695 C 220.041 137.822,221.309 138.594,222.677 139.001 C 225.368 139.800,226.641 142.059,226.487 145.762 C 226.328 149.581,227.479 150.177,231.800 148.513 C 236.912 146.545,239.445 147.768,240.818 152.866 L 241.214 154.339 243.594 154.269 L 245.973 154.200 248.221 156.500 C 249.457 157.765,250.636 158.800,250.840 158.800 C 251.627 158.800,252.735 161.289,252.525 162.584 C 252.331 163.782,254.841 166.800,256.033 166.800 C 256.545 166.800,257.200 169.265,257.200 171.190 C 257.200 172.688,257.407 173.253,258.239 174.030 C 259.989 175.664,260.669 177.535,260.936 181.447 C 261.141 184.468,261.425 185.610,262.592 188.101 C 264.611 192.413,264.175 194.392,260.721 196.600 C 258.470 198.039,258.358 198.759,260.161 200.197 C 262.233 201.849,262.133 206.067,259.978 207.912 C 259.047 208.709,258.982 210.303,259.800 212.262 C 260.804 214.665,260.574 216.026,258.756 218.428 C 256.882 220.902,256.000 222.736,256.000 224.153 C 256.000 224.776,255.418 225.684,254.400 226.649 C 253.520 227.483,252.800 228.482,252.800 228.869 C 252.800 229.256,252.012 230.460,251.049 231.545 C 250.086 232.629,248.967 234.390,248.562 235.458 C 248.158 236.526,247.418 238.120,246.918 239.000 C 246.418 239.880,246.003 240.870,245.996 241.200 C 245.958 242.874,244.559 243.747,241.440 244.045 C 239.337 244.246,237.936 244.622,236.900 245.266 C 236.075 245.777,234.548 246.592,233.507 247.076 C 231.418 248.048,230.004 249.921,230.001 251.720 C 229.998 254.653,228.495 255.875,224.044 256.563 L 221.013 257.032 219.926 259.207 C 218.463 262.134,217.955 262.436,214.606 262.372 C 212.335 262.328,211.191 262.554,208.609 263.559 C 205.053 264.942,203.309 265.085,200.800 264.200 C 199.865 263.870,198.615 263.600,198.023 263.600 C 197.430 263.600,195.608 263.229,193.973 262.776 C 192.338 262.323,189.560 261.801,187.800 261.617 C 182.049 261.015,179.142 259.630,177.500 256.708 C 176.546 255.011,175.512 254.577,173.370 254.979 C 172.455 255.151,171.240 255.012,169.970 254.590 L 167.994 253.934 166.697 255.029 C 164.883 256.561,162.474 257.581,160.649 257.591 C 158.326 257.604,154.235 253.211,153.580 250.000 C 152.849 246.416,153.205 246.600,147.025 246.600 C 140.343 246.600,140.196 246.503,140.561 242.360 C 140.837 239.237,140.598 238.908,137.090 237.565 C 133.006 236.003,131.845 233.922,133.398 230.946 C 134.539 228.757,133.893 226.800,132.028 226.800 C 128.968 226.800,127.543 223.247,129.257 219.888 C 129.993 218.446,130.054 217.982,129.689 216.615 C 129.232 214.903,129.382 214.394,131.400 210.837 C 132.758 208.443,132.669 206.863,131.000 203.718 C 129.525 200.939,129.263 199.087,130.030 196.885 C 130.395 195.840,130.333 195.477,129.630 194.525 C 129.101 193.810,128.626 192.213,128.324 190.144 C 127.722 186.008,128.121 185.227,131.210 184.504 C 135.336 183.539,135.796 181.983,132.800 179.126 C 129.824 176.287,130.022 173.603,133.462 170.191 L 135.607 168.062 135.348 163.524 C 134.888 155.475,136.206 154.089,143.237 155.230 L 146.503 155.761 147.451 154.658 C 148.279 153.696,148.400 153.146,148.400 150.351 C 148.400 146.683,148.667 145.994,150.544 144.835 L 151.898 143.998 154.111 145.011 C 157.254 146.450,160.068 146.463,162.479 145.050 C 164.494 143.869,164.493 143.880,163.169 140.571 C 161.923 137.454,164.135 135.494,167.499 136.734 C 170.187 137.724,171.004 137.476,174.397 134.637 C 177.095 132.381,177.919 132.349,180.495 134.400 C 183.034 136.422,184.123 136.441,188.011 134.534 C 191.372 132.886,191.979 132.856,194.091 134.230 C 195.970 135.452,196.430 135.443,198.476 134.152 C 201.981 131.939,204.449 131.455,206.400 132.597 M295.128 153.943 C 293.136 155.905,294.034 159.600,296.501 159.600 C 297.701 159.600,299.614 157.287,299.226 156.304 C 297.758 152.590,296.964 152.133,295.128 153.943 M102.732 217.933 C 102.990 219.750,100.528 221.168,99.280 219.920 C 98.477 219.117,98.740 218.059,99.900 217.421 C 101.424 216.583,102.570 216.790,102.732 217.933 M99.591 239.375 C 98.172 240.773,96.400 241.155,96.400 240.063 C 96.400 239.023,97.406 238.428,99.191 238.412 L 100.582 238.400 99.591 239.375 M108.792 245.409 C 108.527 245.729,108.138 245.885,107.929 245.756 C 107.715 245.624,107.863 245.173,108.264 244.730 C 109.070 243.838,109.567 244.476,108.792 245.409 M276.725 245.900 C 276.575 246.689,274.919 247.079,274.309 246.469 C 273.673 245.833,274.343 245.200,275.653 245.200 C 276.585 245.200,276.828 245.359,276.725 245.900 M246.210 269.423 C 245.542 269.928,245.437 270.418,245.534 272.582 C 245.612 274.317,245.448 275.534,245.025 276.352 C 243.745 278.827,244.314 280.282,247.286 282.126 C 248.614 282.950,249.087 283.798,249.849 286.724 C 250.507 289.251,251.549 290.603,253.138 290.993 C 255.617 291.602,257.200 293.772,257.200 296.560 C 257.200 298.524,256.167 299.560,252.548 301.224 C 250.706 302.071,249.201 302.997,249.202 303.282 C 249.206 304.346,253.449 309.953,255.184 311.189 C 255.968 311.747,256.400 312.400,256.400 313.027 C 256.400 314.180,256.447 314.172,254.414 313.359 C 253.141 312.850,252.551 312.808,251.546 313.159 C 248.892 314.084,247.544 313.752,244.400 311.400 C 240.739 308.661,239.622 308.941,239.602 312.606 C 239.601 312.829,239.240 313.684,238.800 314.504 C 236.986 317.889,238.755 320.336,244.352 322.187 C 246.354 322.849,246.599 322.854,247.865 322.249 C 250.115 321.177,253.321 321.496,254.844 322.944 C 256.525 324.543,257.797 325.195,259.242 325.197 C 263.075 325.204,263.943 328.804,260.657 331.064 C 257.624 333.148,256.478 333.312,254.842 331.898 C 252.170 329.586,249.364 331.371,248.620 335.856 L 248.344 337.513 250.272 338.228 C 251.333 338.621,252.729 339.307,253.375 339.752 C 257.216 342.397,262.724 340.926,265.163 336.605 C 267.228 332.945,267.986 332.721,270.291 335.089 C 272.499 337.355,274.280 338.167,275.495 337.462 C 275.933 337.208,277.260 336.417,278.445 335.704 C 281.204 334.044,281.260 334.050,283.634 336.270 C 285.533 338.047,285.629 338.235,285.547 340.034 C 285.390 343.479,287.496 344.868,291.836 344.183 C 293.525 343.917,295.522 344.479,295.781 345.294 C 295.870 345.572,296.058 346.836,296.200 348.101 C 296.493 350.714,297.247 351.429,299.249 350.989 C 301.190 350.563,301.468 349.344,300.381 346.027 L 299.456 343.205 300.328 341.459 C 302.155 337.799,300.180 334.300,296.043 333.868 C 290.497 333.288,289.539 331.976,291.641 327.838 C 293.233 324.704,292.888 323.967,289.467 323.202 C 286.479 322.534,285.200 321.979,285.200 321.351 C 285.200 321.048,285.350 320.800,285.532 320.800 C 286.827 320.800,286.878 318.806,285.652 316.185 C 284.216 313.118,284.154 312.543,285.054 310.656 C 285.906 308.868,285.527 307.436,283.960 306.521 C 281.103 304.854,280.445 301.339,282.634 299.442 C 285.876 296.634,285.676 290.469,282.287 288.744 C 281.359 288.272,279.902 287.289,279.048 286.560 C 278.046 285.704,276.711 285.058,275.282 284.739 C 273.729 284.391,272.528 283.777,271.265 282.683 C 268.768 280.522,266.805 279.340,264.830 278.808 C 263.577 278.471,262.937 277.999,262.328 276.967 C 261.311 275.245,260.522 274.813,257.649 274.407 C 254.129 273.909,252.610 273.094,250.982 270.829 C 249.395 268.618,247.868 268.169,246.210 269.423 M284.500 272.659 C 282.186 273.800,283.539 276.481,287.085 277.783 C 289.538 278.683,290.400 279.684,290.400 281.630 C 290.400 282.962,290.603 283.309,291.893 284.186 C 294.746 286.124,297.968 285.218,297.401 282.635 C 296.744 279.645,296.734 276.487,297.378 275.242 L 298.021 274.000 294.510 273.996 C 291.595 273.993,290.661 273.826,289.000 273.009 C 286.638 271.847,286.214 271.814,284.500 272.659 M125.244 330.958 C 123.429 331.964,122.467 335.233,123.833 335.757 C 124.973 336.195,125.735 336.015,127.278 334.946 C 130.594 332.648,128.743 329.019,125.244 330.958 " stroke="none" fill="#ebb504" fill-rule="evenodd"></path><path id="path1" d="M0.000 200.000 L 0.000 400.000 200.000 400.000 L 400.000 400.000 400.000 200.000 L 400.000 0.000 200.000 0.000 L 0.000 0.000 0.000 200.000 M184.142 19.308 C 184.834 20.236,184.951 20.900,184.858 23.378 C 184.738 26.606,185.179 27.904,186.959 29.567 C 187.934 30.477,187.979 30.689,187.742 33.231 L 187.492 35.930 189.546 37.984 C 191.814 40.252,192.171 41.736,190.995 44.010 C 188.851 48.156,190.219 53.250,194.000 55.200 C 197.662 57.089,198.560 60.760,196.805 66.670 C 195.748 70.232,196.169 72.044,198.605 74.405 C 200.366 76.111,200.477 78.315,199.000 82.238 C 197.757 85.540,197.722 87.657,198.880 89.529 C 199.598 90.691,199.800 91.768,199.980 95.377 C 200.161 99.017,200.351 100.013,201.050 101.000 C 201.518 101.660,202.035 102.830,202.198 103.600 C 203.704 110.674,208.152 110.129,215.761 101.938 C 218.874 98.588,220.248 97.807,222.342 98.200 C 228.465 99.349,234.533 94.757,232.826 90.268 C 231.787 87.535,233.139 85.438,236.240 84.973 C 239.117 84.542,240.770 82.784,241.359 79.529 C 242.045 75.741,244.647 74.766,246.149 77.734 C 247.852 81.099,247.892 82.271,246.405 85.129 C 244.908 88.005,244.469 90.434,245.199 91.798 C 246.054 93.395,245.496 96.256,244.038 97.761 C 243.148 98.679,242.388 100.263,241.417 103.227 C 240.665 105.522,239.569 108.741,238.983 110.381 C 237.553 114.375,237.757 115.708,240.232 118.576 C 246.046 125.310,250.426 124.633,252.021 116.754 C 253.167 111.095,254.154 109.720,257.595 108.990 C 262.771 107.893,264.514 106.277,265.455 101.701 C 265.988 99.108,266.939 96.400,267.317 96.400 C 267.369 96.400,269.737 95.590,272.578 94.600 C 275.419 93.610,277.961 92.800,278.227 92.800 C 279.380 92.800,279.576 97.750,278.469 98.888 C 277.757 99.620,270.859 102.083,270.368 101.780 C 269.940 101.516,269.201 103.900,269.196 105.560 C 269.194 106.704,268.789 107.472,267.230 109.294 C 264.432 112.562,263.805 115.686,265.058 120.108 C 265.194 120.587,264.618 121.433,263.280 122.723 C 261.412 124.523,261.275 124.798,260.837 127.615 C 260.582 129.257,260.181 131.713,259.946 133.072 C 259.412 136.172,259.854 137.667,262.042 140.152 C 265.762 144.379,270.900 142.275,277.643 133.764 C 280.906 129.645,282.172 129.000,286.995 129.000 C 292.537 129.000,294.673 127.578,295.408 123.400 C 296.093 119.511,300.936 116.985,304.936 118.431 C 307.397 119.321,310.781 117.997,313.988 114.889 C 316.875 112.093,317.963 111.405,320.868 110.543 L 322.833 109.959 324.447 111.238 L 326.062 112.516 325.235 113.342 C 324.781 113.797,323.372 114.536,322.104 114.984 C 319.454 115.922,318.218 117.749,317.762 121.400 C 317.036 127.213,316.096 128.563,312.398 129.095 C 310.476 129.371,310.090 129.594,309.014 131.048 C 307.995 132.426,307.447 132.770,305.600 133.192 C 301.489 134.131,297.293 137.498,295.254 141.493 C 294.574 142.827,293.958 143.354,292.104 144.186 C 290.380 144.960,289.296 145.834,287.800 147.656 C 284.111 152.148,283.867 152.802,285.052 155.000 C 285.408 155.660,286.478 157.756,287.429 159.658 C 289.262 163.324,290.580 164.631,292.866 165.052 C 295.996 165.628,296.896 167.423,294.962 169.230 C 292.568 171.467,292.108 175.241,293.949 177.530 C 294.423 178.118,295.096 179.230,295.446 180.000 C 295.796 180.770,296.291 181.843,296.547 182.384 C 297.614 184.638,305.652 185.116,308.617 183.102 C 311.728 180.989,314.229 180.904,317.968 182.784 C 319.736 183.673,321.520 184.400,321.932 184.400 C 322.344 184.400,323.236 184.930,323.915 185.579 C 326.509 188.058,334.177 190.520,340.908 191.034 C 342.719 191.173,345.716 191.748,347.569 192.312 L 350.938 193.337 353.453 192.033 C 356.309 190.552,357.621 190.597,359.574 192.239 C 363.024 195.143,365.785 195.130,369.537 192.194 C 374.105 188.621,375.499 188.763,379.756 193.242 C 382.589 196.222,382.892 197.108,381.539 198.461 C 380.710 199.290,380.705 199.341,381.416 199.861 C 382.664 200.774,384.921 200.294,385.717 198.947 C 386.600 197.452,387.488 197.562,389.382 199.404 C 391.590 201.549,392.293 201.614,395.353 199.957 C 398.007 198.519,398.116 198.546,397.572 200.515 C 396.816 203.255,392.855 205.383,387.842 205.743 C 384.343 205.994,383.431 206.534,382.067 209.164 C 380.858 211.497,379.519 211.038,377.081 207.456 C 376.148 206.084,374.850 206.097,372.692 207.500 C 371.107 208.530,370.721 208.600,366.600 208.602 C 362.509 208.604,362.002 208.694,359.378 209.882 C 356.288 211.282,354.781 211.349,351.650 210.227 C 350.666 209.875,348.563 209.592,346.850 209.582 C 343.135 209.561,340.967 208.843,339.690 207.211 C 336.677 203.362,329.387 202.974,325.435 206.453 C 323.461 208.191,322.393 208.367,320.911 207.201 C 319.183 205.842,316.945 205.440,315.342 206.201 C 313.591 207.032,312.247 207.041,310.050 206.239 C 305.177 204.460,299.298 207.264,300.218 210.928 C 300.654 212.667,304.404 215.862,306.848 216.577 C 308.032 216.924,309.775 217.824,310.722 218.577 C 311.670 219.330,312.975 220.063,313.622 220.205 C 315.136 220.537,315.138 221.524,313.626 222.051 C 312.981 222.276,312.169 222.893,311.823 223.422 C 310.802 224.979,309.244 225.554,306.432 225.409 L 303.905 225.280 304.115 226.844 C 304.245 227.811,304.803 228.954,305.576 229.833 L 306.826 231.258 305.225 233.170 C 304.345 234.221,303.349 235.310,303.012 235.590 C 301.935 236.484,302.319 237.401,304.142 238.287 C 305.100 238.752,306.315 239.695,306.842 240.381 C 307.369 241.068,308.295 242.232,308.900 242.968 C 310.679 245.132,309.750 247.170,307.215 246.663 C 304.263 246.073,304.105 247.376,306.637 251.439 C 307.862 253.404,309.162 254.884,310.537 255.880 C 313.461 257.997,313.837 259.182,312.743 262.833 C 311.825 265.895,312.897 267.059,317.138 267.605 C 318.860 267.827,319.972 268.210,320.596 268.797 C 321.607 269.746,323.999 275.661,324.002 277.220 C 324.007 279.260,324.782 280.995,325.996 281.681 C 329.217 283.504,326.220 285.404,320.590 285.110 C 314.811 284.807,312.400 282.819,312.400 278.357 C 312.400 276.549,312.235 276.189,310.600 274.441 C 309.316 273.069,308.800 272.182,308.800 271.348 C 308.800 269.903,307.998 268.716,306.300 267.647 C 305.585 267.197,304.370 265.931,303.600 264.835 C 301.710 262.143,300.204 261.442,297.036 261.781 C 294.815 262.019,294.310 261.924,291.984 260.823 C 290.563 260.151,288.886 259.600,288.258 259.600 C 287.580 259.600,286.469 259.088,285.528 258.343 C 282.345 255.822,279.948 255.656,277.079 257.760 C 274.852 259.393,271.356 258.468,270.103 255.915 C 269.305 254.290,268.699 253.970,267.221 254.394 C 266.342 254.646,265.341 254.621,264.205 254.317 C 262.661 253.904,262.345 253.955,260.753 254.875 C 259.365 255.676,258.377 255.905,256.014 255.973 C 254.371 256.021,252.882 256.149,252.704 256.259 C 252.526 256.369,250.295 256.702,247.745 256.998 C 243.848 257.451,242.941 257.690,242.055 258.499 C 241.475 259.029,240.010 260.103,238.800 260.887 C 234.209 263.861,232.645 267.707,233.797 273.185 C 234.291 275.536,234.323 276.579,233.960 278.658 C 233.714 280.071,233.597 281.797,233.699 282.493 C 233.801 283.189,233.562 284.668,233.168 285.779 C 232.479 287.721,232.479 287.848,233.167 289.024 C 234.751 291.732,233.498 293.945,228.968 296.439 C 223.897 299.230,223.308 299.995,223.053 304.119 L 222.836 307.638 224.244 309.196 C 225.018 310.052,226.454 311.142,227.436 311.618 C 230.791 313.242,230.948 314.308,228.794 320.868 C 226.344 328.328,225.723 328.904,220.272 328.767 C 214.026 328.610,212.800 327.697,212.800 323.204 C 212.800 320.112,211.612 317.197,210.118 316.624 C 207.870 315.761,205.821 320.719,206.777 324.706 C 207.213 326.522,207.168 326.845,206.173 329.034 C 205.582 330.335,204.684 332.826,204.178 334.568 L 203.258 337.737 204.443 340.968 C 205.868 344.856,205.808 345.199,202.990 349.400 C 200.312 353.393,199.789 355.422,200.619 358.607 C 201.336 361.362,201.203 361.886,199.187 364.215 C 196.805 366.968,196.450 373.967,198.506 377.662 C 201.805 383.591,201.911 383.232,196.600 384.155 C 192.850 384.807,193.292 385.109,191.455 380.651 C 190.266 377.765,190.003 376.640,190.046 374.628 C 190.104 371.975,189.513 370.360,187.986 368.999 C 186.594 367.758,185.963 365.923,186.403 364.390 C 187.313 361.216,187.322 357.496,186.427 354.491 C 185.951 352.893,185.666 351.417,185.794 351.210 C 186.173 350.596,184.896 348.004,183.398 346.345 C 181.932 344.723,181.704 343.624,182.376 341.428 C 182.583 340.753,183.148 338.490,183.631 336.400 C 185.555 328.073,185.171 327.163,179.497 326.610 C 176.691 326.337,176.152 325.915,175.857 323.760 C 175.453 320.819,175.506 320.605,177.197 318.355 C 178.076 317.186,178.957 315.682,179.156 315.014 C 181.739 306.346,181.781 306.665,177.782 304.573 C 174.110 302.652,173.490 300.077,175.568 295.379 L 176.400 293.498 175.200 291.449 C 173.355 288.300,172.400 287.262,172.400 288.408 C 172.400 288.632,171.933 289.556,171.362 290.461 C 169.551 293.329,167.971 297.672,167.668 300.613 C 167.466 302.574,167.097 303.821,166.448 304.732 C 165.723 305.751,165.575 306.341,165.776 307.414 C 166.190 309.619,165.080 311.104,161.600 313.000 C 158.575 314.648,157.353 316.370,157.853 318.282 C 158.116 319.285,156.448 320.778,154.757 321.052 L 153.400 321.273 153.727 313.945 C 154.077 306.112,154.119 305.967,156.373 304.807 C 159.364 303.269,160.137 301.977,160.396 298.093 C 160.577 295.380,160.872 294.134,161.715 292.513 C 163.069 289.910,163.068 289.428,161.706 288.082 C 160.385 286.776,159.102 284.128,158.428 281.316 C 157.768 278.564,156.522 278.076,151.900 278.756 C 151.735 278.780,151.600 279.879,151.600 281.199 C 151.600 283.374,151.471 283.741,150.213 285.133 C 149.450 285.978,148.304 287.823,147.667 289.234 C 147.031 290.645,146.101 292.160,145.603 292.600 C 145.104 293.040,144.384 294.123,144.003 295.006 C 143.017 297.287,142.485 297.627,140.586 297.187 C 137.439 296.457,135.678 297.540,134.817 300.737 C 134.560 301.691,134.128 302.400,133.804 302.400 C 129.962 302.400,128.563 303.554,127.319 307.751 C 126.492 310.543,125.512 312.339,123.913 314.000 C 123.171 314.770,121.876 316.255,121.034 317.300 C 119.806 318.825,119.257 319.203,118.252 319.213 C 116.956 319.226,115.600 319.984,115.600 320.695 C 115.600 320.919,115.330 321.326,115.000 321.600 C 114.670 321.874,114.397 322.751,114.394 323.549 C 114.386 325.457,114.121 325.805,111.986 326.720 C 109.686 327.706,109.283 328.222,109.128 330.381 C 109.009 332.025,107.306 333.440,106.462 332.596 C 104.884 331.018,106.365 325.648,109.226 322.573 C 111.192 320.458,111.600 319.778,111.600 318.611 C 111.600 317.558,111.943 316.838,112.958 315.762 C 114.534 314.091,114.797 313.082,114.809 308.650 C 114.819 304.707,115.481 303.119,118.413 300.000 C 119.551 298.790,120.992 296.990,121.617 296.000 C 122.242 295.010,123.656 293.349,124.761 292.309 C 127.921 289.335,128.388 287.887,127.769 282.982 C 127.543 281.190,127.631 280.824,128.557 279.724 C 130.024 277.981,129.878 276.988,127.591 273.161 C 126.485 271.313,125.485 269.432,125.368 268.982 C 125.065 267.822,123.842 267.176,120.726 266.531 C 119.235 266.222,117.066 265.528,115.907 264.989 C 113.111 263.687,110.829 263.691,109.273 265.000 C 108.377 265.754,107.625 266.000,106.220 266.000 C 104.446 266.000,100.400 269.096,100.400 270.453 C 100.400 270.634,99.350 270.767,98.067 270.749 C 95.228 270.709,93.160 271.660,90.950 274.022 L 89.400 275.679 86.688 275.462 C 84.266 275.268,83.687 275.374,81.288 276.456 C 76.664 278.540,74.328 278.701,72.678 277.051 C 69.884 274.258,66.753 275.168,64.601 279.399 C 63.778 281.017,62.992 281.981,62.190 282.359 C 61.535 282.667,60.304 283.540,59.454 284.300 C 57.635 285.925,56.122 285.881,54.523 284.155 C 53.291 282.825,49.301 282.891,46.400 284.291 C 40.895 286.945,38.414 286.864,36.071 283.954 C 33.967 281.340,27.474 283.652,23.400 288.464 C 20.558 291.822,19.707 292.332,19.195 290.987 C 18.460 289.055,19.352 285.495,20.794 284.604 C 21.017 284.466,21.200 283.850,21.200 283.236 C 21.200 281.477,22.760 279.541,24.695 278.899 C 26.470 278.310,27.700 276.959,28.147 275.107 C 28.449 273.859,29.833 273.022,32.259 272.619 C 34.274 272.284,34.661 272.735,33.796 274.408 C 32.111 277.666,37.314 280.060,39.863 277.200 C 40.670 276.295,41.284 275.998,42.366 275.991 C 43.155 275.985,44.880 275.524,46.200 274.965 C 47.810 274.284,49.851 273.837,52.400 273.608 C 56.041 273.281,58.798 272.615,58.802 272.061 C 58.811 270.793,61.371 269.200,63.398 269.200 C 65.094 269.200,65.673 269.031,66.109 268.408 C 67.103 266.989,69.287 266.400,73.554 266.400 C 78.627 266.400,80.775 265.601,81.963 263.272 C 82.864 261.506,83.400 261.200,85.587 261.200 C 86.932 261.200,87.186 261.362,87.772 262.597 C 89.124 265.447,91.078 264.865,94.417 260.616 C 95.526 259.205,97.040 257.545,97.782 256.926 C 99.038 255.877,102.400 247.194,102.400 244.996 C 102.400 243.447,99.162 243.350,97.259 244.842 C 96.742 245.247,95.662 245.701,94.859 245.850 C 94.057 245.999,92.635 246.447,91.700 246.846 C 89.572 247.754,89.580 247.609,91.800 245.071 C 94.941 241.481,94.389 240.693,88.606 240.511 C 85.027 240.399,81.652 239.677,80.693 238.821 C 80.163 238.346,74.674 239.196,72.974 240.016 C 70.467 241.224,67.733 240.309,67.006 238.019 C 66.487 236.383,69.760 233.616,71.543 234.182 C 74.703 235.185,78.768 233.880,80.712 231.239 C 81.568 230.076,81.782 230.000,84.204 230.000 C 87.998 230.000,89.774 229.157,90.811 226.862 C 91.350 225.670,92.504 224.277,94.013 222.999 C 97.467 220.074,98.234 217.314,95.948 216.037 C 94.863 215.431,90.674 216.033,90.158 216.868 C 89.637 217.710,88.012 217.187,87.773 216.100 C 85.687 206.642,83.548 203.718,78.514 203.449 C 77.021 203.369,74.900 202.995,73.800 202.618 C 71.173 201.717,68.853 202.034,65.055 203.813 C 63.057 204.748,61.509 205.200,60.301 205.200 C 58.913 205.200,58.170 205.470,57.000 206.400 C 55.145 207.874,54.417 207.902,53.170 206.546 C 50.049 203.153,47.633 202.504,43.696 204.000 C 41.289 204.915,39.907 204.990,37.339 204.343 C 35.933 203.989,34.895 204.005,32.726 204.414 C 29.456 205.031,28.320 204.612,27.076 202.328 C 24.777 198.112,20.565 198.152,17.182 202.423 C 15.399 204.674,14.688 204.511,11.267 201.067 C 9.664 199.454,7.467 197.699,6.383 197.167 C 4.062 196.028,3.959 195.518,5.486 192.713 C 6.719 190.448,8.405 190.202,10.640 191.960 C 12.664 193.552,15.640 192.908,19.345 190.076 L 21.691 188.283 26.345 188.599 C 34.901 189.178,36.348 189.088,38.722 187.824 C 40.700 186.770,41.047 186.712,43.858 186.967 C 47.800 187.324,50.319 186.555,51.662 184.583 C 52.952 182.689,54.150 182.968,57.135 185.856 C 58.775 187.444,60.515 187.769,64.369 187.209 C 69.589 186.450,74.482 185.250,75.273 184.534 C 75.888 183.977,76.223 183.959,77.775 184.393 C 81.424 185.415,83.095 183.629,82.688 179.142 L 82.483 176.881 84.342 176.361 C 87.306 175.532,91.281 171.358,91.054 169.312 C 90.944 168.316,91.158 167.268,91.681 166.242 C 92.614 164.413,92.441 163.844,90.182 161.278 C 88.401 159.256,87.788 158.884,85.732 158.576 C 80.736 157.829,79.200 156.960,79.200 154.880 C 79.200 152.805,78.441 151.907,75.616 150.639 C 73.443 149.664,73.060 149.308,72.003 147.274 C 70.255 143.913,68.196 142.006,66.312 142.001 C 64.494 141.998,60.308 138.680,58.958 136.174 C 57.936 134.276,58.345 134.165,61.879 135.386 C 64.041 136.132,66.414 136.576,69.600 136.830 C 75.835 137.326,75.769 137.302,78.795 140.223 L 81.464 142.800 84.632 142.806 C 87.731 142.811,87.836 142.844,89.475 144.322 C 94.836 149.159,103.179 148.644,101.395 143.586 C 100.562 141.224,100.649 140.282,101.800 139.200 C 103.038 138.037,103.087 136.559,101.991 133.374 C 101.018 130.546,101.098 130.272,103.212 129.194 L 104.863 128.351 107.039 130.076 C 112.514 134.415,113.159 134.662,115.655 133.372 C 119.461 131.404,118.649 126.206,114.319 124.824 C 112.624 124.282,112.192 123.400,112.816 121.757 C 113.737 119.335,112.026 115.359,109.228 113.419 L 107.605 112.295 107.854 110.181 C 108.079 108.265,107.985 107.894,106.851 106.214 C 104.667 102.978,105.204 101.765,108.200 103.166 C 111.413 104.669,112.497 105.976,112.823 108.746 C 113.251 112.370,114.570 114.074,118.463 116.032 C 122.138 117.880,122.411 118.292,122.356 121.918 C 122.289 126.304,123.569 127.600,127.965 127.600 C 129.427 127.600,131.166 127.914,132.400 128.400 C 136.825 130.144,138.080 129.347,138.197 124.715 C 138.366 118.042,137.374 114.608,134.617 112.318 C 133.328 111.247,132.040 108.106,132.551 107.279 C 132.682 107.067,134.006 106.765,135.494 106.608 C 138.230 106.318,139.386 105.824,138.956 105.129 C 138.827 104.920,138.309 102.555,137.806 99.874 C 136.584 93.370,136.478 93.160,133.115 90.666 C 128.923 87.556,128.873 87.479,128.565 83.587 C 128.251 79.620,127.715 78.791,124.533 77.366 C 123.206 76.771,122.363 76.113,122.176 75.526 C 122.017 75.023,121.147 73.647,120.243 72.467 C 118.410 70.074,116.776 67.491,116.971 67.295 C 117.042 67.225,118.427 67.468,120.050 67.835 C 123.225 68.554,124.342 69.227,128.691 73.036 C 130.221 74.376,132.460 76.128,133.666 76.929 C 138.646 80.234,140.800 84.281,140.800 90.332 L 140.800 94.691 142.747 96.512 C 145.255 98.857,150.960 100.435,150.250 98.587 C 149.923 97.734,151.638 97.149,154.600 97.102 C 157.277 97.060,158.165 97.423,160.856 99.658 C 163.120 101.540,164.711 101.682,166.514 100.165 C 167.550 99.293,168.000 99.169,169.372 99.374 C 170.616 99.560,171.425 99.403,172.800 98.709 L 174.600 97.800 174.702 95.000 C 174.844 91.071,175.040 90.503,176.506 89.751 C 178.276 88.845,178.460 88.475,178.177 86.400 C 177.919 84.513,177.744 84.066,174.938 78.114 C 172.832 73.647,172.750 74.467,175.572 71.714 C 178.438 68.917,178.700 68.032,177.895 63.876 C 177.223 60.406,177.233 60.347,178.974 57.439 C 180.737 54.494,180.627 51.296,178.651 47.978 C 176.525 44.410,176.503 44.057,178.207 40.924 C 179.667 38.241,179.685 38.150,179.458 34.823 C 179.249 31.755,179.341 31.122,180.464 27.876 C 181.547 24.750,181.668 23.982,181.435 21.712 C 181.050 17.952,182.301 16.841,184.142 19.308 M47.473 107.061 C 48.239 107.425,49.795 108.685,50.931 109.861 C 53.232 112.245,54.944 112.932,59.800 113.420 C 61.340 113.575,63.500 114.027,64.600 114.426 C 65.700 114.824,67.452 115.271,68.494 115.420 C 71.380 115.830,75.832 120.025,75.348 121.878 C 74.394 125.526,68.801 124.958,65.617 120.890 C 64.709 119.730,63.248 118.260,62.371 117.625 L 60.777 116.470 58.421 117.486 C 55.396 118.792,54.527 118.555,53.000 116.013 C 52.340 114.914,51.658 114.012,51.484 114.008 C 51.310 114.003,50.590 113.595,49.884 113.100 C 44.020 108.989,42.263 104.589,47.473 107.061 M86.450 126.346 C 90.789 129.097,91.093 131.853,87.136 132.561 C 84.740 132.990,83.717 131.739,83.489 128.100 C 83.274 124.683,83.560 124.513,86.450 126.346 M201.368 132.568 C 200.690 132.863,199.389 133.576,198.476 134.152 C 196.430 135.443,195.970 135.452,194.091 134.230 C 191.979 132.856,191.372 132.886,188.011 134.534 C 184.123 136.441,183.034 136.422,180.495 134.400 C 177.919 132.349,177.095 132.381,174.397 134.637 C 171.004 137.476,170.187 137.724,167.499 136.734 C 164.135 135.494,161.923 137.454,163.169 140.571 C 164.493 143.880,164.494 143.869,162.479 145.050 C 160.068 146.463,157.254 146.450,154.111 145.011 L 151.898 143.998 150.544 144.835 C 148.667 145.994,148.400 146.683,148.400 150.351 C 148.400 153.146,148.279 153.696,147.451 154.658 L 146.503 155.761 143.237 155.230 C 136.206 154.089,134.888 155.475,135.348 163.524 L 135.607 168.062 133.462 170.191 C 130.022 173.603,129.824 176.287,132.800 179.126 C 135.796 181.983,135.336 183.539,131.210 184.504 C 128.121 185.227,127.722 186.008,128.324 190.144 C 128.626 192.213,129.101 193.810,129.630 194.525 C 130.333 195.477,130.395 195.840,130.030 196.885 C 129.263 199.087,129.525 200.939,131.000 203.718 C 132.669 206.863,132.758 208.443,131.400 210.837 C 129.382 214.394,129.232 214.903,129.689 216.615 C 130.054 217.982,129.993 218.446,129.257 219.888 C 127.543 223.247,128.968 226.800,132.028 226.800 C 133.893 226.800,134.539 228.757,133.398 230.946 C 131.845 233.922,133.006 236.003,137.090 237.565 C 140.598 238.908,140.837 239.237,140.561 242.360 C 140.196 246.503,140.343 246.600,147.025 246.600 C 153.205 246.600,152.849 246.416,153.580 250.000 C 154.235 253.211,158.326 257.604,160.649 257.591 C 162.474 257.581,164.883 256.561,166.697 255.029 L 167.994 253.934 169.970 254.590 C 171.240 255.012,172.455 255.151,173.370 254.979 C 175.512 254.577,176.546 255.011,177.500 256.708 C 179.142 259.630,182.049 261.015,187.800 261.617 C 189.560 261.801,192.338 262.323,193.973 262.776 C 195.608 263.229,197.430 263.600,198.023 263.600 C 198.615 263.600,199.865 263.870,200.800 264.200 C 203.309 265.085,205.053 264.942,208.609 263.559 C 211.191 262.554,212.335 262.328,214.606 262.372 C 217.955 262.436,218.463 262.134,219.926 259.207 L 221.013 257.032 224.044 256.563 C 228.495 255.875,229.998 254.653,230.001 251.720 C 230.004 249.921,231.418 248.048,233.507 247.076 C 234.548 246.592,236.075 245.777,236.900 245.266 C 237.936 244.622,239.337 244.246,241.440 244.045 C 244.559 243.747,245.958 242.874,245.996 241.200 C 246.003 240.870,246.418 239.880,246.918 239.000 C 247.418 238.120,248.158 236.526,248.562 235.458 C 248.967 234.390,250.086 232.629,251.049 231.545 C 252.012 230.460,252.800 229.256,252.800 228.869 C 252.800 228.482,253.520 227.483,254.400 226.649 C 255.418 225.684,256.000 224.776,256.000 224.153 C 256.000 222.736,256.882 220.902,258.756 218.428 C 260.574 216.026,260.804 214.665,259.800 212.262 C 258.982 210.303,259.047 208.709,259.978 207.912 C 262.133 206.067,262.233 201.849,260.161 200.197 C 258.358 198.759,258.470 198.039,260.721 196.600 C 264.175 194.392,264.611 192.413,262.592 188.101 C 261.425 185.610,261.141 184.468,260.936 181.447 C 260.669 177.535,259.989 175.664,258.239 174.030 C 257.407 173.253,257.200 172.688,257.200 171.190 C 257.200 169.265,256.545 166.800,256.033 166.800 C 254.841 166.800,252.331 163.782,252.525 162.584 C 252.735 161.289,251.627 158.800,250.840 158.800 C 250.636 158.800,249.457 157.765,248.221 156.500 L 245.973 154.200 243.594 154.269 L 241.214 154.339 240.818 152.866 C 239.445 147.768,236.912 146.545,231.800 148.513 C 227.479 150.177,226.328 149.581,226.487 145.762 C 226.641 142.059,225.368 139.800,222.677 139.001 C 221.309 138.594,220.041 137.822,218.891 136.695 L 217.163 135.000 214.335 135.108 C 211.491 135.216,210.152 134.792,206.400 132.597 C 205.161 131.872,202.995 131.859,201.368 132.568 M298.205 154.100 C 299.671 156.973,299.676 157.121,298.332 158.404 C 296.372 160.278,293.170 158.600,293.802 156.030 C 294.475 153.292,297.186 152.104,298.205 154.100 M99.900 217.421 C 98.740 218.059,98.477 219.117,99.280 219.920 C 100.528 221.168,102.990 219.750,102.732 217.933 C 102.570 216.790,101.424 216.583,99.900 217.421 M97.100 238.832 C 96.715 239.056,96.400 239.610,96.400 240.063 C 96.400 241.155,98.172 240.773,99.591 239.375 L 100.582 238.400 99.191 238.412 C 98.426 238.419,97.485 238.608,97.100 238.832 M108.264 244.730 C 107.863 245.173,107.715 245.624,107.929 245.756 C 108.402 246.048,109.329 244.987,109.128 244.383 C 109.040 244.120,108.687 244.262,108.264 244.730 M274.178 245.635 C 273.777 246.285,274.581 246.886,275.650 246.734 C 277.138 246.522,277.141 245.200,275.653 245.200 C 274.990 245.200,274.326 245.396,274.178 245.635 M250.982 270.829 C 252.610 273.094,254.129 273.909,257.649 274.407 C 260.522 274.813,261.311 275.245,262.328 276.967 C 262.937 277.999,263.577 278.471,264.830 278.808 C 266.805 279.340,268.768 280.522,271.265 282.683 C 272.528 283.777,273.729 284.391,275.282 284.739 C 276.711 285.058,278.046 285.704,279.048 286.560 C 279.902 287.289,281.359 288.272,282.287 288.744 C 285.676 290.469,285.876 296.634,282.634 299.442 C 280.445 301.339,281.103 304.854,283.960 306.521 C 285.527 307.436,285.906 308.868,285.054 310.656 C 284.154 312.543,284.216 313.118,285.652 316.185 C 286.878 318.806,286.827 320.800,285.532 320.800 C 285.350 320.800,285.200 321.048,285.200 321.351 C 285.200 321.979,286.479 322.534,289.467 323.202 C 292.888 323.967,293.233 324.704,291.641 327.838 C 289.539 331.976,290.497 333.288,296.043 333.868 C 300.180 334.300,302.155 337.799,300.328 341.459 L 299.456 343.205 300.381 346.027 C 301.468 349.344,301.190 350.563,299.249 350.989 C 297.247 351.429,296.493 350.714,296.200 348.101 C 296.058 346.836,295.870 345.572,295.781 345.294 C 295.522 344.479,293.525 343.917,291.836 344.183 C 287.496 344.868,285.390 343.479,285.547 340.034 C 285.629 338.235,285.533 338.047,283.634 336.270 C 281.260 334.050,281.204 334.044,278.445 335.704 C 277.260 336.417,275.933 337.208,275.495 337.462 C 274.280 338.167,272.499 337.355,270.291 335.089 C 267.986 332.721,267.228 332.945,265.163 336.605 C 262.724 340.926,257.216 342.397,253.375 339.752 C 252.729 339.307,251.333 338.621,250.272 338.228 L 248.344 337.513 248.620 335.856 C 249.364 331.371,252.170 329.586,254.842 331.898 C 256.478 333.312,257.624 333.148,260.657 331.064 C 263.943 328.804,263.075 325.204,259.242 325.197 C 257.797 325.195,256.525 324.543,254.844 322.944 C 253.321 321.496,250.115 321.177,247.865 322.249 C 246.599 322.854,246.354 322.849,244.352 322.187 C 238.755 320.336,236.986 317.889,238.800 314.504 C 239.240 313.684,239.601 312.829,239.602 312.606 C 239.622 308.941,240.739 308.661,244.400 311.400 C 247.544 313.752,248.892 314.084,251.546 313.159 C 252.551 312.808,253.141 312.850,254.414 313.359 C 256.447 314.172,256.400 314.180,256.400 313.027 C 256.400 312.400,255.968 311.747,255.184 311.189 C 253.449 309.953,249.206 304.346,249.202 303.282 C 249.201 302.997,250.706 302.071,252.548 301.224 C 256.167 299.560,257.200 298.524,257.200 296.560 C 257.200 293.772,255.617 291.602,253.138 290.993 C 251.549 290.603,250.507 289.251,249.849 286.724 C 249.087 283.798,248.614 282.950,247.286 282.126 C 244.314 280.282,243.745 278.827,245.025 276.352 C 245.448 275.534,245.612 274.317,245.534 272.582 C 245.336 268.177,248.375 267.199,250.982 270.829 M289.000 273.009 C 290.661 273.826,291.595 273.993,294.510 273.996 L 298.021 274.000 297.378 275.242 C 296.734 276.487,296.744 279.645,297.401 282.635 C 297.968 285.218,294.746 286.124,291.893 284.186 C 290.603 283.309,290.400 282.962,290.400 281.630 C 290.400 279.684,289.538 278.683,287.085 277.783 C 283.539 276.481,282.186 273.800,284.500 272.659 C 286.214 271.814,286.638 271.847,289.000 273.009 M128.800 332.146 C 128.800 334.596,126.039 336.604,123.833 335.757 C 122.467 335.233,123.429 331.964,125.244 330.958 C 127.429 329.747,128.800 330.205,128.800 332.146 " stroke="none" fill="#040404" fill-rule="evenodd"></path></g></svg>